<svg width="24" height="24" viewBox="0 0 24 24" fill="none" xmlns="http://www.w3.org/2000/svg">
<path d="M12.5998 11.9969L8.6998 8.09688C8.51647 7.91354 8.4248 7.68021 8.4248 7.39688C8.4248 7.11354 8.51647 6.88021 8.6998 6.69688C8.88314 6.51354 9.11647 6.42188 9.3998 6.42188C9.68314 6.42188 9.91647 6.51354 10.0998 6.69688L14.6998 11.2969C14.7998 11.3969 14.8706 11.5052 14.9123 11.6219C14.954 11.7385 14.9748 11.8635 14.9748 11.9969C14.9748 12.1302 14.954 12.2552 14.9123 12.3719C14.8706 12.4885 14.7998 12.5969 14.6998 12.6969L10.0998 17.2969C9.91647 17.4802 9.68314 17.5719 9.3998 17.5719C9.11647 17.5719 8.88314 17.4802 8.6998 17.2969C8.51647 17.1135 8.4248 16.8802 8.4248 16.5969C8.4248 16.3135 8.51647 16.0802 8.6998 15.8969L12.5998 11.9969Z" fill="#333333"/>
</svg>
