<svg width="24" height="24" viewBox="0 0 24 24" fill="none" xmlns="http://www.w3.org/2000/svg">
<path d="M10.7996 11.9969L14.6996 8.09688C14.8829 7.91354 14.9746 7.68021 14.9746 7.39688C14.9746 7.11354 14.8829 6.88021 14.6996 6.69688C14.5163 6.51354 14.2829 6.42188 13.9996 6.42188C13.7163 6.42188 13.4829 6.51354 13.2996 6.69688L8.69961 11.2969C8.59961 11.3969 8.52878 11.5052 8.48711 11.6219C8.44544 11.7385 8.42461 11.8635 8.42461 11.9969C8.42461 12.1302 8.44544 12.2552 8.48711 12.3719C8.52878 12.4885 8.59961 12.5969 8.69961 12.6969L13.2996 17.2969C13.4829 17.4802 13.7163 17.5719 13.9996 17.5719C14.2829 17.5719 14.5163 17.4802 14.6996 17.2969C14.8829 17.1135 14.9746 16.8802 14.9746 16.5969C14.9746 16.3135 14.8829 16.0802 14.6996 15.8969L10.7996 11.9969Z" fill="#333333"/>
</svg>
